<svg xmlns="http://www.w3.org/2000/svg" viewBox="74.22 191.45 178.24 160.05">
  <defs>
    <style>.cls-1{fill:#ffdc04;}.cls-2{fill:#1d1d1b;stroke:#fff;stroke-miterlimit:10;stroke-width:3px;}.cls-3{fill:#322d7d;}.cls-4{fill:#2b58a2;}.cls-5{fill:#3b80bf;}.cls-6{fill:#3398d5;}.cls-7{fill:#fff;}</style>
  </defs>
  <path class="cls-1" d="M134.56,205.44,111,200.86c7.73-1.23,50.54-7.24,89.81,22,41.22,30.67,46.6,76.37,47.34,83.74l-7.2-9.82a113.92,113.92,0,0,0-21.51-46.86C189.5,211.59,144.28,206.34,134.56,205.44Z" transform="matrix(1, 0, 0, 1, 3.552713678800501e-15, 0)"/>
  <path class="cls-2" d="M248.71,300.34c-.22-.54-1.05-.9-1.12-1.42a3.16,3.16,0,0,0-2.24-2.56c-1.5-.66-2.91-1.5-4.37-2.23-2.33-1.17-4.57-1.41-6.6.64a5.71,5.71,0,0,1-1,.64c-.1-.69-.17-1.21-.27-1.91-2.72,1-5.26,1.9-8.07,1.7a1.47,1.47,0,0,1-1.5-.91c-.39-.82-.73-1.69-1.89-1.74s-2.16,0-2.56-1.39c0-.19-.82-.25-1.25-.25-2.41,0-4.82-.05-7.23,0a1.42,1.42,0,0,1-1.61-1c-.44-1-.91-2-1.39-3-.63-1.3-1.27-2.61-1.84-3.94-.49-1.15-1-2-2.38-1.6-.81-1.94-.94-2-2.46-2.15-.8-.06-1.74.36-2.22-.81-.32-.77-1.15-1.37-1.31-2.15-.23-1.1-.71-.87-1.38-.65.41,2.28.81,4.5,1.24,6.92l-6.83-4.09c-1.3.27-3.19.67-5.09,1-2.15.41-3.12-.34-3-2.49a1.69,1.69,0,0,0-1.25-1.94,10.76,10.76,0,0,1-1.45-.79l-1.11,1.53-5.88-3.45c2.28-1.34.8-3.23.63-5.16h-3.21c.32-1.6.61-3,.91-4.49l1.66.32-.26-.3,2.55-2.47-2.72-2.73c-1.22.31-1.37-.78-1.28-2,.08-1,.21-2.09.32-3.14L166,251c.13-.79.23-1.43.33-2.06-2.44-.56-2.54-.52-3.22,1.61a12.56,12.56,0,0,1-.84,2.6s-.05.09-.08.14c-.6.86-1.59,2.06-2.39,2.05-1.75,0-3.48-.71-5.62-1.23,2.05-2.1,2-4.42,2.21-6.71.14-1.32.09-2.31-1.06-3a2.1,2.1,0,0,1-.82-2.86c.31-.82.77-1.62-.25-2.53-.71-.64,0-1.72,1.42-1.74l-1.52-2.09c0-2,1.72-4,.65-6.76-.84-2.17-1.11-4.43-3-5.65a6.1,6.1,0,0,0,0-2,5.08,5.08,0,0,1,.05-3.7c.47-1.59.81-3.22,1.18-4.75l-1.77-1,2.38-2.62-.21-.36c-2.25.56-3.24-1.17-4.83-2.37l1.65-.28c.11-1.59.11-1.59-1.81-2.16.25-2.15.53-4.32.74-6.49.11-1.16-1.24-3.43-2.06-3.67-2.53-.76-3.59-.56-4.7,1.22a17.43,17.43,0,0,1-7.17,6.63c-1.86.93-3.59,2.13-5.45,3.24l1.71,3.53c-1,.93-1.89,1.76-2.85,2.64-1.19-3.11-4-2.34-6.15-3.52.27,3,.38,5.86.81,8.62.36,2.25.42,4.22-1.78,5.59-.76.47-1.41,1.35-2.2,1.47a2.27,2.27,0,0,0-1.86,1.28,4.08,4.08,0,0,1-.61.79l-.49.46c-2.31,2-4.69,4-7,6.05s-4.72,3.78-6.7,6.13a31.59,31.59,0,0,1-4.53,3.91,5.36,5.36,0,0,1-1.45.6,28.08,28.08,0,0,0-.61-4c-.18-.62-.74-1-1.7-.62-1.36.5-1.15,2-2.06,2.61a3.9,3.9,0,0,0-1.86,4.15c.1.76-.16,1.32-1,1.37L81.9,246,80,243.42a3.4,3.4,0,0,0,.1-.47c0-.29,0-.58.06-.86-2-.39-1.92-.32-2.11,1.48a10.48,10.48,0,0,1-1,3.06,9.79,9.79,0,0,1-1.2,1.68c.59.57,1.07,1,1.56,1.5l-1.57.76a1.55,1.55,0,0,0,1,2.09,1.43,1.43,0,0,1,.77.85c.27,1.9,1.21,3.85-.36,5.59,1.28.82,1.43,2.08.32,2.83a1.83,1.83,0,0,0-.78,2.25c.32,1.11.81,2.17,1.31,3.47l2.32.8-1.61,1.74a9.1,9.1,0,0,1,.8,1.34c.54,1.41,1.45,1.62,2.77,1.07a21.8,21.8,0,0,1,2.62-.73,6.84,6.84,0,0,0-.44,2.13c.36,2.1,1.38,2.71,3.89,2.52,1.89-.15,2.59.62,2.13,2.27,1,2.07,2.55.49,3.8.55,0,1.69-.34,3.41.1,4.9s1.67,2.93,2.45,4.23c.79-.5,1.39-1.12,1.66-1,1.77.77,2.85-1.5,4.52-.92,1.13-1.75,3.25-2.87,3.42-5.26a2.61,2.61,0,0,1,1.38-2.38c1.22-.61,2.46-1.19,3.69-1.79.06.12.13.23.19.34l.64-1.72c1.07,1.28,1.83,2.92,3.09,3.51a4.13,4.13,0,0,1,1.34,1,21.74,21.74,0,0,1,1.7,2.72l.05.08a4.45,4.45,0,0,1-1.75,6,4.87,4.87,0,0,1-1.4.51c.43,1.64-1.2,3.43.49,5a3.89,3.89,0,0,1-.24.58c-1.38,2.46-1.41,2.49.38,4.48a2.44,2.44,0,0,1,.29,3.21c-.74,1.24-1,2.42.06,3.78.37.45,0,1.58-.18,2.38-.06.37-.5.73-.44,1,.26,1.52-.61,2.35-1.68,3.16s-1.73,1.62-2.69,2.29a1.55,1.55,0,0,0-.59,2.34,4,4,0,0,0,1.83,1.48,5.32,5.32,0,0,0,2.27-.08c.64-.1,1.27-.28,1.9-.38a2.79,2.79,0,0,1,2.59.74,1,1,0,0,0,.74.08c1.81-.38,2.95.58,4.09,1.8a2.83,2.83,0,0,0,2,1c3.87-.67,7.25,0,10,3a2.15,2.15,0,0,0,1.44.38,1.34,1.34,0,0,1,1.37,1.89c-.43,1.44-.08,2.18,1.35,2.08s2.31.68,3.35,1.44c1.33,1,2.76,2.1,4.7,1,.75,1.72,2,.67,3.11.49a24.73,24.73,0,0,0,3.69-1c.31-.11.45-.69.67-1l-1.19-.92a2.64,2.64,0,0,1,.08-.38c.17-.35.37-.69.51-1.06,1.14-3,1.34-3.51,3.49-2.56l3.4,1.53.24.1,1.57-2c1.4,1.36,4.17.78,4.41,3.26a6.25,6.25,0,0,1,1.6.67c.89.77,1.65,1.69,2.54,2.45.43.37,1.09.82,1.55.73,2.35-.43,3.61.64,4.26,2.75.05.15.14.28.2.42.41.9,1,1,1.87.55s2-1.42,3-1.39c1.6.06,2.2-1,3.23-1.85-.69-.71-1.31-1.37-2-2,1.45-.09,2.72-.14,4-.26,1.52-.14,2.67.18,3.28,1.8a10.77,10.77,0,0,0,1.55,2.63c.63.83,1.31,1.94,2.17,2.18s2.16,1.23,3.1-.36c.44-.74,1.45-1.29,2.18,0,.1.19.38.27,1,.64.45-1.68.82-3.16,1.24-4.63a11,11,0,0,1,.64-1.46c.45.23.91.44,1.36.68a3.17,3.17,0,0,1,.45.35c1.94-1.4,1.94-1.4,1.79-2.82l.18-.22a18.63,18.63,0,0,0,2-2.56c.53-1,1.16-1.11,2-.56a5.42,5.42,0,0,1,2.13,5.64,3.21,3.21,0,0,0,.08,1c.25,2.17,2.46,4.09.84,6.5.77,1.18-.12,1.91-.92,2.74,1.32.85,2.17,2.4,3.93,1.94,1.51-.39,3-1,4.21-1.44a31.16,31.16,0,0,0,2.62,4.49,10.13,10.13,0,0,0,4.16,2.72c-.1-.64-.14-1-.2-1.35l5.15.58c.31-1.92,2.22-.55,3.4-1.21v-4.6a4.44,4.44,0,0,1-.89.06c-.32,0-.85-.16-.88-.31a1.25,1.25,0,0,1,.29-1c1.76-1.13,3.53-2.29,5.8-2,0-4.47,0-4.47-3.1-7.25-.38-.35-.94-.63-1.1-1.05-.52-1.43-.9-2.91-1.32-4.37a.49.49,0,0,1,.09-.29c.3-.56.61-1.11,1-1.74l1.64.28.88-1.62c2.57.71,2.69-2.06,4.34-2.59l-1.4-2.94-1.14.53c-.34-.65-.67-1.18-.91-1.75a5.56,5.56,0,0,1-.57-1.86c0-.25.67-.53,1-.79l.88-.65a19.15,19.15,0,0,1-2.3-.45c-.36-.13-.61-.56-.92-.85.3-.27.56-.73.89-.77,1.18-.16,2.39-.17,3.31-.22-.33-.81-.69-1.72-1.2-3l2.74.46c.3-1.19,1-2.41.76-3.39-.38-1.5-.08-2,1.36-2.22S249.13,301.44,248.71,300.34Z" transform="matrix(1, 0, 0, 1, 3.552713678800501e-15, 0)"/>
  <path class="cls-3" d="M116.3,224.87c-2.31,2-4.69,4-7,6s-4.72,3.77-6.7,6.12A31,31,0,0,1,98.11,241a5.33,5.33,0,0,1-1.45.59,28.32,28.32,0,0,0-.61-4c-.18-.62-.74-1-1.7-.61-1.36.5-1.15,2-2.06,2.61a3.89,3.89,0,0,0-1.86,4.14c.1.77-.16,1.32-1,1.37l-7.49.43L80,242.94a3.4,3.4,0,0,0,.1-.47c0-.29,0-.58.06-.86-2-.39-1.92-.32-2.11,1.47a10.54,10.54,0,0,1-1,3.07,9.79,9.79,0,0,1-1.2,1.68l1.56,1.5-1.57.75a1.54,1.54,0,0,0,1,2.09,1.47,1.47,0,0,1,.77.86c.27,1.9,1.21,3.84-.36,5.59,1.28.82,1.43,2.07.32,2.83a1.83,1.83,0,0,0-.78,2.25c.32,1.11.81,2.17,1.31,3.47l2.32.79-1.61,1.75a8.61,8.61,0,0,1,.8,1.34c.54,1.41,1.45,1.61,2.77,1.07a21.8,21.8,0,0,1,2.62-.73,6.74,6.74,0,0,0-.44,2.12c.36,2.1,1.38,2.72,3.89,2.52,1.89-.14,2.59.63,2.13,2.28,1,2.06,2.55.49,3.8.55,0,1.69-.34,3.41.1,4.9s1.67,2.93,2.45,4.22c.79-.49,1.39-1.12,1.66-1,1.77.77,2.85-1.5,4.52-.92,1.13-1.76,3.25-2.88,3.42-5.26a2.6,2.6,0,0,1,1.38-2.38c1.22-.61,2.46-1.2,3.69-1.79l.19.34c.23-.62.47-1.25.64-1.72,1.07,1.27,1.83,2.92,3.09,3.51a4.13,4.13,0,0,1,1.34,1V224.4C116.63,224.57,116.47,224.72,116.3,224.87Z" transform="matrix(1, 0, 0, 1, 3.552713678800501e-15, 0)"/>
  <path class="cls-3" d="M115.39,289.08c.43,1.64-1.2,3.43.49,5a4.39,4.39,0,0,1-.24.58c-1.38,2.46-1.41,2.49.38,4.48a2.42,2.42,0,0,1,.29,3.2c-.74,1.25-1,2.43.06,3.78.37.46,0,1.58-.18,2.39-.06.36-.5.73-.44,1,.26,1.53-.61,2.36-1.68,3.17s-1.73,1.62-2.69,2.28a1.55,1.55,0,0,0-.59,2.34,4,4,0,0,0,1.83,1.49,5.32,5.32,0,0,0,2.27-.09c.64-.09,1.27-.28,1.9-.37V288.56A4.6,4.6,0,0,1,115.39,289.08Z" transform="matrix(1, 0, 0, 1, 3.552713678800501e-15, 0)"/>
  <path class="cls-4" d="M162.14,252.83c-.6.86-1.59,2.06-2.39,2-1.75,0-3.48-.71-5.62-1.22,2.05-2.1,2-4.42,2.21-6.72.14-1.31.09-2.3-1.06-3a2.09,2.09,0,0,1-.82-2.85c.31-.82.77-1.62-.25-2.54-.71-.64,0-1.71,1.42-1.73l-1.52-2.09c0-2.05,1.72-4,.65-6.77-.84-2.16-1.11-4.43-3-5.64a6.08,6.08,0,0,0,0-2,5.08,5.08,0,0,1,.05-3.7c.47-1.59.81-3.23,1.18-4.76l-1.77-1,2.38-2.62-.21-.36c-2.25.56-3.24-1.17-4.83-2.38l1.65-.27c.11-1.59.11-1.59-1.81-2.16.25-2.15.53-4.32.74-6.5.11-1.15-1.24-3.42-2.06-3.67-2.53-.76-3.59-.56-4.7,1.23a17.5,17.5,0,0,1-7.17,6.63c-1.86.93-3.59,2.12-5.45,3.24.61,1.26,1.16,2.38,1.71,3.53l-2.85,2.64c-1.19-3.11-4-2.34-6.15-3.53.27,3,.38,5.86.81,8.62.36,2.26.42,4.22-1.78,5.59-.76.47-1.41,1.36-2.2,1.48a2.24,2.24,0,0,0-1.86,1.27,3.55,3.55,0,0,1-.61.79v55.36a21,21,0,0,1,1.7,2.72l.05.08a4.44,4.44,0,0,1-1.75,6v29.81a2.79,2.79,0,0,1,2.59.74,1,1,0,0,0,.74.08c1.81-.38,2.95.58,4.09,1.79a2.85,2.85,0,0,0,2,1c3.87-.67,7.25,0,10,3a2.21,2.21,0,0,0,1.44.38,1.34,1.34,0,0,1,1.37,1.89c-.43,1.44-.08,2.17,1.35,2.08s2.31.68,3.35,1.44c1.33,1,2.76,2.09,4.7,1,.75,1.73,2,.68,3.11.49a22.52,22.52,0,0,0,3.69-1c.31-.1.45-.68.67-1l-1.19-.91a2.64,2.64,0,0,1,.08-.38c.17-.35.37-.7.51-1.06,1.14-3,1.34-3.51,3.49-2.56l3.4,1.52V252.69C162.19,252.74,162.17,252.79,162.14,252.83Z" transform="matrix(1, 0, 0, 1, 3.552713678800501e-15, 0)"/>
  <path class="cls-5" d="M205.81,282.46c-.49-1.14-1-2-2.38-1.59-.81-1.94-.94-2-2.46-2.15-.8-.06-1.74.36-2.22-.81-.32-.77-1.15-1.38-1.31-2.15-.23-1.11-.71-.88-1.38-.65.41,2.28.81,4.5,1.24,6.91l-6.83-4.08c-1.3.26-3.19.67-5.09,1-2.15.41-3.12-.34-3-2.5a1.7,1.7,0,0,0-1.25-1.94,11.93,11.93,0,0,1-1.45-.78l-1.11,1.53-5.88-3.45c2.28-1.34.8-3.24.63-5.16h-3.21c.32-1.61.61-3,.91-4.49l1.66.32-.26-.31c.91-.87,1.81-1.75,2.55-2.47L172.23,257c-1.22.31-1.37-.77-1.28-2,.08-1.05.21-2.09.32-3.14L166,250.54c.13-.78.23-1.42.33-2.06-2.44-.56-2.54-.51-3.22,1.62a12.28,12.28,0,0,1-.84,2.59v74.18l.24.11,1.57-2c1.4,1.37,4.17.79,4.41,3.27a6.25,6.25,0,0,1,1.6.67c.89.76,1.65,1.68,2.54,2.45.43.37,1.09.82,1.55.73,2.35-.44,3.61.64,4.26,2.75.05.14.14.27.2.41.41.91,1,1,1.87.56s2-1.42,3-1.39c1.6.06,2.2-1,3.23-1.85-.69-.71-1.31-1.37-2-2,1.45-.09,2.72-.14,4-.26,1.52-.15,2.67.18,3.28,1.79a10.64,10.64,0,0,0,1.55,2.64c.63.83,1.31,1.94,2.17,2.18s2.16,1.23,3.1-.37c.44-.74,1.45-1.28,2.18,0,.1.18.38.26,1,.64.45-1.69.82-3.17,1.24-4.63a9.94,9.94,0,0,1,.64-1.46l1.36.67a4.17,4.17,0,0,1,.45.36c1.94-1.4,1.94-1.4,1.79-2.82l.18-.22V286.41C207,285.1,206.38,283.8,205.81,282.46Z" transform="matrix(1, 0, 0, 1, 3.552713678800501e-15, 0)"/>
  <path class="cls-6" d="M247.59,298.44a3.16,3.16,0,0,0-2.24-2.56c-1.5-.66-2.91-1.5-4.37-2.24-2.33-1.16-4.57-1.41-6.6.65a6.39,6.39,0,0,1-1,.64c-.1-.69-.17-1.21-.27-1.92-2.72,1-5.26,1.91-8.07,1.7-.81-.06-1.19-.24-1.5-.9-.39-.83-.73-1.69-1.89-1.74s-2.16,0-2.56-1.39c0-.2-.82-.25-1.25-.26-2.41,0-4.82-.05-7.23,0a1.43,1.43,0,0,1-1.61-1c-.44-1-.91-2-1.39-3v42.64a19.26,19.26,0,0,0,2-2.56c.53-1,1.16-1.12,2-.56a5.42,5.42,0,0,1,2.13,5.64,3.12,3.12,0,0,0,.08,1c.25,2.17,2.46,4.09.84,6.5.77,1.19-.12,1.92-.92,2.75,1.32.85,2.17,2.4,3.93,1.94,1.51-.39,3-1,4.21-1.44a30.51,30.51,0,0,0,2.62,4.48,10,10,0,0,0,4.16,2.73c-.1-.65-.14-1-.2-1.36l5.15.58c.31-1.91,2.22-.55,3.4-1.21v-4.6a3.82,3.82,0,0,1-.89.07c-.32,0-.85-.16-.88-.31a1.24,1.24,0,0,1,.29-1c1.76-1.14,3.53-2.3,5.8-2,0-4.47,0-4.47-3.1-7.26-.38-.34-.94-.62-1.1-1.05-.52-1.42-.9-2.9-1.32-4.36a.49.49,0,0,1,.09-.29c.3-.56.61-1.12,1-1.74l1.64.27c.31-.57.63-1.14.88-1.62,2.57.72,2.69-2.06,4.34-2.59l-1.4-2.93-1.14.53c-.34-.65-.67-1.18-.91-1.75a5.56,5.56,0,0,1-.57-1.86c0-.25.67-.53,1-.8l.88-.65a15.45,15.45,0,0,1-2.29-.45c-.37-.13-.62-.55-.93-.84.3-.27.56-.73.89-.78,1.18-.15,2.39-.17,3.31-.22-.33-.8-.69-1.72-1.2-3l2.74.46c.3-1.19,1-2.41.76-3.4-.38-1.5-.08-2,1.36-2.21s2.91-2.22,2.49-3.32C248.49,299.32,247.66,299,247.59,298.44Z" transform="matrix(1, 0, 0, 1, 3.552713678800501e-15, 0)"/>
  <path class="cls-7" d="M148.11,283.15c.56.48,1.09,1,1.69,1.42,1.41,1,2.84,2,4.3,3,1.8,1.17,3.64,2.31,5.48,3.45a10.5,10.5,0,0,0,2.39,1.14.27.27,0,0,1,.15.11l3,3,7,7a12.47,12.47,0,0,1,1,1.09.87.87,0,0,1,0,1.25c-.36.51-.74,1-1.1,1.5a2.78,2.78,0,0,0-.49,1.05,3.25,3.25,0,0,0,.13,1.81,5.36,5.36,0,0,0,3.36,3.28,6.17,6.17,0,0,0,2,.23,6.88,6.88,0,0,0,.85-.14,2.17,2.17,0,0,0,.47-.17,1.43,1.43,0,0,0,.34-.22,6.45,6.45,0,0,0,.53-.5,2.67,2.67,0,0,0,.47-2.77,6.49,6.49,0,0,0-1.54-2.35c-.68-.69-1.39-1.33-2.09-2l-.1-.09c.28-.28.54-.56.81-.84l.92-.94a.47.47,0,0,0,.07-.68.52.52,0,0,0-.7-.13l-2.19,1.25c-.23.13-.23.14-.42-.05l-9.17-9-1.55-1.51c-.07-.07-.09-.12,0-.21.16-.25.3-.5.46-.75l.51.19,12.3,4.77,1.45.56a.14.14,0,0,1,.11.18c-.08.86-.15,1.72-.23,2.58a.63.63,0,0,0,.1.45.53.53,0,0,0,.49.21.42.42,0,0,0,.38-.31l.82-2.07c0-.09.07-.17.11-.27l1.26.55a13.81,13.81,0,0,0,2.92.94,4.37,4.37,0,0,0,2,0,2.71,2.71,0,0,0,2-2.93,7,7,0,0,0-.23-1l0-.14-.36-.7c-.21-.26-.39-.53-.61-.76a5.44,5.44,0,0,0-3.85-1.81,3.34,3.34,0,0,0-2.4.79,4.64,4.64,0,0,0-.91,1.29c-.2.35-.38.72-.58,1.07a.84.84,0,0,1-1.13.49c-.73-.2-1.45-.44-2.16-.7-2-.72-3.9-1.47-5.85-2.2L163.52,290a.63.63,0,0,1-.2-.13,9.11,9.11,0,0,0-1.56-1.35c-1.45-1-2.89-2-4.36-2.94-2.07-1.36-4.15-2.69-6.33-3.85a15.56,15.56,0,0,0-1.44-.66,2.86,2.86,0,0,0-.58-.13l-.2.1c-.11.34-.11.34.13.51l4.68,3.43,2,1.44.48.37c-.31-.15-.59-.32-.89-.48l-6.89-3.89c-.13-.07-.22-.1-.29-.07s-.16.21-.17.24A.64.64,0,0,0,148.11,283.15Zm9.17,4.69a8.61,8.61,0,0,0,1.16.62l3.35,1.27-3.35-1.27a8.61,8.61,0,0,1-1.16-.62l-8.92-5Zm-4.26-1.4-.33-.22Zm5.61,3.57-.85-.52Zm3.2,1.22a.94.94,0,0,0,.12.18A.94.94,0,0,1,161.83,291.23Zm.51-.76a.45.45,0,0,1,.63.19.47.47,0,0,1-.19.65.48.48,0,0,1-.66-.21A.47.47,0,0,1,162.34,290.47Zm0-.35a1.21,1.21,0,0,1,.34-.05h0A1.21,1.21,0,0,0,162.35,290.12Zm.74,1.37a.79.79,0,0,1-.23.14.8.8,0,0,1-.59,0,.8.8,0,0,0,.59,0A.79.79,0,0,0,163.09,291.49Zm-1.29-.33a.83.83,0,0,1,0-.47.19.19,0,0,1,0-.07.19.19,0,0,0,0,.07A.83.83,0,0,0,161.8,291.16Zm.27.37-.06,0Zm0,0h0Zm1.21.29-.09,0Zm-.2.06-.08,0Zm-.11,0-.19,0Zm-.25,0-.28,0a2.59,2.59,0,0,1-.4-.09,2.59,2.59,0,0,0,.4.09Zm-13.57-10.68h0l0,0,.82.61,2.8,2-2.8-2-.82-.61Zm1.09.43-.56-.25-.19-.09a1.11,1.11,0,0,0-.26-.07,1.11,1.11,0,0,1,.26.07l.19.09Zm12.25,7.84c-.26-.21-.52-.44-.8-.63l-.68-.46-3.8-2.54,3.8,2.54.68.46C162,289.08,162.25,289.31,162.51,289.52Zm16.36,7.28,0,0Zm-14.6-5.7Zm-1-.55Zm-.22-.32.31.08-.31-.08Zm9.85,3.67,1.86.7-1.86-.7L166,291.29Zm6.46,1.67-.13.09a1.12,1.12,0,0,1-.76.16,7.45,7.45,0,0,1-1.66-.46l-1.86-.69,1.86.69a7.45,7.45,0,0,0,1.66.46,1.12,1.12,0,0,0,.76-.16Zm-.55,1.17h0Zm8.7-.95a2,2,0,0,1-.48,2.08,2.25,2.25,0,0,1-1.62.66,4.8,4.8,0,0,1-4.26-2.45c-.1-.27-.2-.5-.26-.73a2,2,0,0,1,.51-2.09,2.36,2.36,0,0,1,1.6-.64,4.5,4.5,0,0,1,3,1.07A4,4,0,0,1,187.5,295.79ZM181,293a1.24,1.24,0,0,0-.18.22,2.7,2.7,0,0,0-.22.33l-.51.9.51-.9a2.7,2.7,0,0,1,.22-.33A1.24,1.24,0,0,1,181,293Zm1.26,5.21-.05,0Zm-.92-5.52-.14.12Zm.38-.23-.16.08Zm4.58.8,0,0,0,0-.17-.13-.28-.19a4.73,4.73,0,0,0-2.78-.79h-.2a2.47,2.47,0,0,0-.38,0,3.18,3.18,0,0,0-.53.14l-.16.07.16-.07a3.18,3.18,0,0,1,.53-.14,2.47,2.47,0,0,1,.38,0h.2a4.73,4.73,0,0,1,2.78.79l.28.19Zm.44.38a1.29,1.29,0,0,0-.17-.16A1.29,1.29,0,0,1,186.7,293.64Zm-.25-.23-.07-.05Zm1.12,1.33a.86.86,0,0,0-.1-.16A.86.86,0,0,1,187.57,294.74Zm.38,2.53h0Zm-.22.49a2.68,2.68,0,0,1-.26.37,2.68,2.68,0,0,0,.26-.37,2.38,2.38,0,0,0,.22-.49A2.38,2.38,0,0,1,187.73,297.76Zm-1,.92.07,0Zm.32-.19h0Zm-1.77.47h.29a3.42,3.42,0,0,0,.57-.07l.16,0-.16,0a3.42,3.42,0,0,1-.57.07ZM178.9,300l0,0Zm-.25-.21v0Zm.25-2.83a.28.28,0,0,0,0-.13.28.28,0,0,1,0,.13l-.21,2.31Zm-14.06-3.1-1.44-1.41a.33.33,0,0,1-.1-.14.33.33,0,0,0,.1.14Zm12.35,8.1-2.36,1.35c-.13.07-.19.1-.25.07l0,0-.11-.09-4.6-4.51,4.6,4.51.11.09,0,0c.06,0,.12,0,.25-.07Zm-3.06,3.86a4,4,0,0,1,2.59.48A4.27,4.27,0,0,1,179,308.9a2,2,0,0,1-.47,2.18,2.25,2.25,0,0,1-1.6.62,4.76,4.76,0,0,1-4.24-2.47,4.34,4.34,0,0,1-.2-.5,2.19,2.19,0,0,1,.06-1.79A2,2,0,0,1,174.13,305.85Zm-1.76.4c.16-.22.32-.45.49-.67C172.69,305.8,172.53,306,172.37,306.25Zm3.81-1.39-.45-.39,0,0,0,0Zm-2.45-.7a.34.34,0,0,0,0-.1A.34.34,0,0,1,173.73,304.16Zm0-.21a.63.63,0,0,0,0-.22A.63.63,0,0,1,173.73,304Zm3.83-1.91,0,0a.18.18,0,0,0-.12-.09h0a.18.18,0,0,1,.12.09Zm-.05.21,0,0,0,0,0,0Zm-1,2.9-.25-.22Zm2.66,3.07a7,7,0,0,0-1-1.36,17.48,17.48,0,0,0-1.6-1.62,17.48,17.48,0,0,1,1.6,1.62A7,7,0,0,1,179.16,308.22Zm.42,1.56v0Zm0-.37c0,.07,0,.13,0,.2S179.57,309.48,179.56,309.41Zm-.11-.48a1.89,1.89,0,0,1,.09.34,1.89,1.89,0,0,0-.09-.34,3.51,3.51,0,0,0-.21-.57A3.51,3.51,0,0,1,179.45,308.93Zm.11,1.16s0-.09,0-.13S179.56,310.05,179.56,310.09Zm-.05.22h0Zm-4.67,1.49a4.13,4.13,0,0,0,.45.17A4.13,4.13,0,0,1,174.84,311.8ZM172,307a2.46,2.46,0,0,0-.09.29c0,.1,0,.2-.05.3a3,3,0,0,0,.13,1.14,4.63,4.63,0,0,0,1.1,1.86,4.63,4.63,0,0,1-1.1-1.86,3,3,0,0,1-.13-1.14c0-.1,0-.2.05-.3A2.46,2.46,0,0,1,172,307Zm1.2,3.7.22.2Zm.56-6.48a.65.65,0,0,1-.11.29c-.22.33-.45.65-.68,1,.23-.32.46-.64.68-1A.65.65,0,0,0,173.72,304.21ZM164.31,294l1.1,1.1c2.35,2.35,4.69,4.69,7,7.05a13,13,0,0,1,1,1.12,13,13,0,0,0-1-1.12c-2.34-2.36-4.68-4.7-7-7.05Zm-1.53-1.53-.13-.14.13.14.13.13Zm-.15-.16.35,0,.35,0h0l-.35,0-.35,0Zm-13.2-8.39.21.17Zm-1.13-1,0,0Z" transform="matrix(1, 0, 0, 1, 3.552713678800501e-15, 0)"/>
  <path class="cls-7" d="M137.16,259.86l-.39.35c.42.43.85.83,1.25,1.26,1,1.09,2,2.19,3.06,3.27.6.62,1.23,1.2,1.87,1.77a19.1,19.1,0,0,1,3.62,4.1,11,11,0,0,1,1.68,3.79,3.27,3.27,0,0,1-.28,2.15,1.9,1.9,0,0,1-2.95.71,6.71,6.71,0,0,1-1-.88c-1-1-1.93-2.14-3-3.15s-2.13-1.94-3.23-2.87a6.59,6.59,0,0,0-3.23-1.23c-1.49-.28-3-.53-4.49-.81a6,6,0,0,1-2.91-1.55c-.68-.61-1.36-1.24-2.06-1.83a5.83,5.83,0,0,0-3.36-1.27c-.92-.08-1.85-.05-2.78-.08-.62,0-1.24-.07-1.88-.11V249.73c.39.09.75.17,1.11.27,1.69.51,3.37,1.05,5.07,1.51.9.25,1.84.36,2.76.54a10,10,0,0,0,1.3.21,12.14,12.14,0,0,0,1.59-.11l7-.9c1.15-.15,2.29-.31,3.44-.44s2.18-.2,3.26-.3c.63-.06,1.25-.13,1.86-.22a2.44,2.44,0,0,1,2.68,1c.19.29.41.56.59.86,1.13,1.82,2.23,3.65,3.37,5.45.83,1.31,1.71,2.59,2.58,3.88a3.23,3.23,0,0,1,.62,1.88,46.8,46.8,0,0,0,.34,5.42,9.94,9.94,0,0,1,0,1.81,3.68,3.68,0,0,1-.84,1.9l-2.39,3.42a8.51,8.51,0,0,1-.73.86.74.74,0,0,1-1.18-.07,2,2,0,0,1-.47-1.57,38.32,38.32,0,0,1,.7-3.85,2.19,2.19,0,0,1,2.32-1.75l.12,0v-.45a2.28,2.28,0,0,0-1.31.21c-.57.28-.71.22-1.09-.3a1.63,1.63,0,0,1-.34-1c0-.76,0-1.52,0-2.28a10.92,10.92,0,0,0-.16-1.13c.45-.31,1-.67,1.54-1.05.07-.06.09-.2.13-.3s-.25-.16-.32-.13a6,6,0,0,0-.81.49c-.23.16-.43.35-.66.5a.43.43,0,0,1-.58-.05c-.74-.62-1.5-1.21-2.21-1.85a4.11,4.11,0,0,0-1.52-.76l-2-.68a.49.49,0,0,1-.37-.43c-.11-.59-.24-1.18-.36-1.78l-.48,0c.13.67.27,1.31.38,2a5.9,5.9,0,0,1-.33,3.3,2.63,2.63,0,0,1-.31.48Z" transform="matrix(1, 0, 0, 1, 3.552713678800501e-15, 0)"/>
  <path class="cls-7" d="M147.84,251.29a1.58,1.58,0,0,1,1.73.86c.44.73.83,1.48,1.28,2.2.84,1.32,1.65,2.66,2.57,3.91,1,1.4,2.19,2.7,3.25,4.07a10.22,10.22,0,0,1,1,1.67,3.7,3.7,0,0,1,.09,2.37,29.7,29.7,0,0,1-1,3.36,29,29,0,0,0-.82,3,4.3,4.3,0,0,1-1.52,2.63c-1.1.89-2.11,1.87-3.17,2.81a3,3,0,0,1-1.44.83,1.72,1.72,0,0,1-1.42-.52.36.36,0,0,1-.05-.35c.2-.46.43-.9.67-1.38.18.2.3.36.44.5a1.16,1.16,0,0,0,1.77,0c.49-.55.92-1.17,1.36-1.77.67-.92,1.3-1.88,2-2.79a4.32,4.32,0,0,0,.81-2.92c-.08-1.26-.21-2.51-.29-3.76-.06-.83-.09-1.66-.09-2.48a3.9,3.9,0,0,0-.72-2.2c-1.33-2-2.65-4-3.94-6C149.47,254,148.67,252.65,147.84,251.29Z" transform="matrix(1, 0, 0, 1, 3.552713678800501e-15, 0)"/>
  <path class="cls-7" d="M149.16,265.85l-1.89-.24a9,9,0,0,0-1.15-.13,1.31,1.31,0,0,0-.63.18c-.54.27-1.06.57-1.6.84a.27.27,0,0,1-.26,0c-.59-.53-1.17-1.07-1.78-1.63a2.76,2.76,0,0,0,.77-1.65c.11-.6.17-1.21.25-1.85l.93.31c.58.19,1.17.36,1.73.6a3.67,3.67,0,0,1,.88.59c.77.62,1.54,1.25,2.29,1.89a1.22,1.22,0,0,1,.48.86C149.18,265.68,149.17,265.74,149.16,265.85Z" transform="matrix(1, 0, 0, 1, 3.552713678800501e-15, 0)"/>
  <path class="cls-7" d="M207.65,326.45c0,.57,0,1.05,0,1.42s0,.67,0,1.13a7.94,7.94,0,0,1-.11,1.29c-.27,1-1.33,1.81-2,1.64-.27-.07-.29-.26-.87-.51-.32-.13-.63-.26-.86-.13s-.26.44-.28.58c0,.29-.29,2.16-.71,2.33s-1.25-1.48-3-3.68c-2.18-2.78-2.72-2.48-3.65-4.3a5.49,5.49,0,0,0-1.41-1.92,3.92,3.92,0,0,0-2.09-.81,32.68,32.68,0,0,0-4.64-.09c-3.61.05-7.23.07-10.84.07-.81,0-1.62-.11-2.42-.18a1.57,1.57,0,0,1-.52-.16c-2.49-1.29-5-2.54-7.46-3.9a27.66,27.66,0,0,1-3.06-2.15c-1.6-1.2-3.17-2.42-4.76-3.64l-.1-.07c-.47-.37-.42-.77.09-1.12a2.07,2.07,0,0,1,2.42-.1c.84.49,1.68,1,2.51,1.47l3.43,2.08.09.06a6.62,6.62,0,0,0-.28,1.08,1.12,1.12,0,0,0,.69,1.19c1.07.47,2.15.94,3.25,1.34s2.19.7,3.29,1a5.42,5.42,0,0,0,1.21.15c1.19.06,2.39.05,3.58.15,1,.09,1.92.31,2.88.46.56.09,1.13.19,1.7.26.11,0,.23-.13.34-.19-.07-.11-.13-.3-.22-.32-.49-.11-1-.17-1.49-.25-1-.17-2-.37-3-.5-.69-.09-1.39-.07-2.08-.11a19.67,19.67,0,0,1-3-.25,40.06,40.06,0,0,1-4-1.25c-.73-.26-1.44-.59-2.15-.91a.81.81,0,0,1-.5-1,.86.86,0,0,1,.88-.7c.86,0,1.73,0,2.59.1,1.28.14,2.55.37,3.84.5a15.31,15.31,0,0,0,3.64-.12c1.74-.25,3.41-.78,5.11-1.19s3.62-.81,5.44-1.13a10.28,10.28,0,0,1,4.45.08,11.34,11.34,0,0,1,5.11,3c2.38,2.37,4.64,4.84,6.85,7.37a4.32,4.32,0,0,0,1.25,1.5A3.37,3.37,0,0,0,207.65,326.45Z" transform="matrix(1, 0, 0, 1, 3.552713678800501e-15, 0)"/>
  <path class="cls-7" d="M171.71,315.49l-2.64-.16a1.22,1.22,0,0,0-.54,0c-.51.21-.89-.07-1.28-.31-1.64-1-3.27-2-4.92-3a9.71,9.71,0,0,0-1.5-.7,2,2,0,0,0-1.76.19l-.39.21c-.38-.33-.77-.66-1.14-1a.32.32,0,0,1,.05-.56,3.65,3.65,0,0,1,4.26-.17c2.14,1.29,4.29,2.59,6.46,3.84.95.54,2,.95,2.95,1.43Z" transform="matrix(1, 0, 0, 1, 3.552713678800501e-15, 0)"/>
  <path class="cls-7" d="M168.52,202.33a2,2,0,0,1,0-1.43l1.18-3.84a2,2,0,0,1,.83-1.17,2,2,0,0,1,2.46.76,1.93,1.93,0,0,1,0,1.43l-.24.76-1.06-.33.26-.83q.19-.66-.36-.84c-.38-.11-.63,0-.77.49l-1.23,4c-.14.44,0,.71.36.83s.63,0,.76-.48l.34-1.1,1.06.33-.31,1a2,2,0,0,1-.82,1.17,1.66,1.66,0,0,1-1.38.08A1.72,1.72,0,0,1,168.52,202.33Z" transform="matrix(1, 0, 0, 1, 3.552713678800501e-15, 0)"/>
  <path class="cls-7" d="M172.41,203.54a1.94,1.94,0,0,1,0-1.46l1.29-3.72a1.94,1.94,0,0,1,.89-1.16,2,2,0,0,1,2.5.87,1.94,1.94,0,0,1,0,1.46l-1.28,3.72a2,2,0,0,1-.89,1.16,2,2,0,0,1-2.51-.87Zm2.26-.61,1.33-3.86c.17-.46.05-.76-.33-.89s-.66,0-.82.5l-1.33,3.86c-.16.46-.05.76.33.89S174.51,203.4,174.67,202.93Z" transform="matrix(1, 0, 0, 1, 3.552713678800501e-15, 0)"/>
  <path class="cls-7" d="M178.61,198.19l1.37.53-.55,4.6h0l1.62-4.18,1,.38-2.7,7-1.13-.43.66-5.61h0l-2,5.09-1-.38Z" transform="matrix(1, 0, 0, 1, 3.552713678800501e-15, 0)"/>
  <path class="cls-7" d="M180.6,206.61a1.9,1.9,0,0,1,.12-1.46l1.55-3.62a2,2,0,0,1,1-1.1,1.71,1.71,0,0,1,1.41.07,1.75,1.75,0,0,1,1,1,1.93,1.93,0,0,1-.13,1.45L184,206.55a2,2,0,0,1-1,1.1,2,2,0,0,1-2.43-1Zm2.29-.45,1.61-3.76c.19-.45.1-.76-.27-.92s-.66,0-.85.44l-1.61,3.76c-.19.45-.1.76.27.92S182.7,206.61,182.89,206.16Z" transform="matrix(1, 0, 0, 1, 3.552713678800501e-15, 0)"/>
  <path class="cls-7" d="M184.46,208.3a1.94,1.94,0,0,1,.18-1.42l1.7-3.64a2,2,0,0,1,1-1,1.72,1.72,0,0,1,1.37.11,1.66,1.66,0,0,1,1,1,1.86,1.86,0,0,1-.17,1.41l-.34.72-1-.47.36-.79c.2-.41.12-.71-.23-.87s-.63,0-.83.38l-1.78,3.78c-.19.41-.11.7.25.87s.63,0,.82-.37l.49-1,1,.48-.45,1a2,2,0,0,1-1,1,1.72,1.72,0,0,1-1.37-.11A1.66,1.66,0,0,1,184.46,208.3Z" transform="matrix(1, 0, 0, 1, 3.552713678800501e-15, 0)"/>
  <path class="cls-7" d="M191,203.53l1.05.52-3.34,6.7-1.06-.53Z" transform="matrix(1, 0, 0, 1, 3.552713678800501e-15, 0)"/>
  <path class="cls-7" d="M193,204.52l1.47.79-1.89,5.07h0l3.21-4.35,1.48.8-3.56,6.58-1-.53,2.69-5h0L192,212.47l-.87-.46,1.94-5.4h0l-2.69,5-.9-.49Z" transform="matrix(1, 0, 0, 1, 3.552713678800501e-15, 0)"/>
  <path class="cls-7" d="M198.18,207.38l1,.59-3.77,6.47-1-.59Z" transform="matrix(1, 0, 0, 1, 3.552713678800501e-15, 0)"/>
  <path class="cls-7" d="M200.07,208.49l2.73,1.68-.56.91L200.51,210l-1,1.68,1.38.85-.56.91-1.38-.85-1.2,2,1.72,1.06-.56.91-2.73-1.68Z" transform="matrix(1, 0, 0, 1, 3.552713678800501e-15, 0)"/>
  <path class="cls-7" d="M203.54,210.64l1.23.82-1.54,4.37h0l2.49-3.73.87.58-4.15,6.23-1-.67,1.86-5.33h0l-3,4.54-.87-.58Z" transform="matrix(1, 0, 0, 1, 3.552713678800501e-15, 0)"/>
  <path class="cls-7" d="M207.61,214.71l-1-.72.63-.86,2.95,2.12-.63.87-1-.72-3.75,5.21-.95-.69Z" transform="matrix(1, 0, 0, 1, 3.552713678800501e-15, 0)"/>
  <path class="cls-7" d="M206.71,221.53a1.94,1.94,0,0,1,.49-1.38l2.41-3.11a1.91,1.91,0,0,1,1.21-.82,1.73,1.73,0,0,1,1.35.42,1.7,1.7,0,0,1,.75,1.2,1.94,1.94,0,0,1-.49,1.38L210,222.33a1.91,1.91,0,0,1-1.21.82,1.75,1.75,0,0,1-1.35-.42A1.7,1.7,0,0,1,206.71,221.53Zm2.34.14,2.5-3.23c.3-.39.29-.7,0-.95s-.63-.18-.94.21l-2.5,3.23c-.3.39-.29.7,0,.95S208.75,222.06,209.05,221.67Z" transform="matrix(1, 0, 0, 1, 3.552713678800501e-15, 0)"/>
  <path class="cls-7" d="M215.68,219.58l2.43,2.09-.69.81-1.55-1.32-1.28,1.5,1.22,1.05-.69.82-1.23-1.05-1.5,1.74,1.55,1.32-.7.82-2.43-2.09Zm2.42-.2,1,.84-1.67.19-.68-.58Z" transform="matrix(1, 0, 0, 1, 3.552713678800501e-15, 0)"/>
  <path class="cls-7" d="M218.71,223.65l-.91-.83.72-.79,2.68,2.46-.72.79-.91-.83-4.33,4.73-.87-.8Z" transform="matrix(1, 0, 0, 1, 3.552713678800501e-15, 0)"/>
  <path class="cls-7" d="M221.71,225l.84.81-5.19,5.39-.85-.82Z" transform="matrix(1, 0, 0, 1, 3.552713678800501e-15, 0)"/>
  <path class="cls-7" d="M218.48,231.77a1.91,1.91,0,0,1,.66-1.27l2.87-2.82a1.94,1.94,0,0,1,1.28-.64,2,2,0,0,1,1.8,1.84,1.94,1.94,0,0,1-.65,1.27l-.57.55-.78-.79.62-.61c.33-.32.36-.62.08-.9s-.57-.26-.9.06l-3,2.94c-.32.32-.35.62-.07.9s.57.25.9-.06l.81-.81.78.8-.75.74a1.9,1.9,0,0,1-1.28.63A1.66,1.66,0,0,1,219,233,1.68,1.68,0,0,1,218.48,231.77Z" transform="matrix(1, 0, 0, 1, 3.552713678800501e-15, 0)"/>
  <path class="cls-7" d="M226.91,230.27l1.08,1.17-4.7,6-.8-.87,1-1.16h0l-.9-1-1.23.83-.73-.81Zm-2.82,4.32,2.37-2.88v0l-3.08,2.12Z" transform="matrix(1, 0, 0, 1, 3.552713678800501e-15, 0)"/>
  <path class="cls-7" d="M227.86,237.85l2.41-3.83.79,1-1.61,2.37,0,0,2.63-1.13.73.88-4.22,1.64-2.46,2-.75-.91Z" transform="matrix(1, 0, 0, 1, 3.552713678800501e-15, 0)"/>
  <path class="cls-7" d="M234.39,239.12l.7.95-2.45,1.81.76,1,2.44-1.82.7.94-6,4.47-.7-1,2.71-2-.75-1-2.71,2-.7-.95Z" transform="matrix(1, 0, 0, 1, 3.552713678800501e-15, 0)"/>
  <path class="cls-7" d="M231.54,247.26a2,2,0,0,1,.9-1.16l4.71-3.22.67,1L233,247.12a.85.85,0,0,0-.38.45.63.63,0,0,0,.11.46.56.56,0,0,0,.4.27.79.79,0,0,0,.54-.19l4.78-3.28.64.94L234.42,249a2,2,0,0,1-1.4.42,1.68,1.68,0,0,1-1.14-.81A1.73,1.73,0,0,1,231.54,247.26Z" transform="matrix(1, 0, 0, 1, 3.552713678800501e-15, 0)"/>
  <path class="cls-7" d="M239.73,246.66l.89,1.42-4.15,3.47,0,0,4.94-2.2.89,1.43-6.36,4-.58-.94,4.8-3h0l-5.26,2.27-.52-.83,4.36-3.73,0,0-4.8,3-.55-.87Z" transform="matrix(1, 0, 0, 1, 3.552713678800501e-15, 0)"/>
  <path class="cls-7" d="M243.32,252.56l.79,1.38-5.92,4.75-.58-1,1.19-.92h0l-.66-1.16-1.38.53-.53-.95Zm-3.72,3.58,3-2.28v0l-3.47,1.38Z" transform="matrix(1, 0, 0, 1, 3.552713678800501e-15, 0)"/>
  <path class="cls-7" d="M245.08,255.69l.67,1.31-3.45,3.08v0l4-2.06.48.93-6.65,3.44-.55-1.07,4.2-3.77v0l-4.85,2.51-.48-.93Z" transform="matrix(1, 0, 0, 1, 3.552713678800501e-15, 0)"/>
  <path class="cls-7" d="M247.22,259.9l.51,1.06L241,264.21l-.51-1Z" transform="matrix(1, 0, 0, 1, 3.552713678800501e-15, 0)"/>
  <path class="cls-7" d="M248.18,261.89l.74,1.64a1.73,1.73,0,0,1,.11,1.39,2,2,0,0,1-1.08,1l-3.45,1.55a2,2,0,0,1-1.44.17,1.73,1.73,0,0,1-1-1l-.74-1.64Zm-5.12,4.25a.57.57,0,0,0,.34.34.84.84,0,0,0,.57-.09l3.55-1.6a.8.8,0,0,0,.44-.37.56.56,0,0,0,0-.47l-.24-.55-4.88,2.2Z" transform="matrix(1, 0, 0, 1, 3.552713678800501e-15, 0)"/>
  <path class="cls-7" d="M250.36,266.86l.6,1.48-6.47,4-.44-1.09,1.29-.76h0l-.5-1.24-1.44.36-.41-1Zm-4.15,3.08,3.23-1.88v0l-3.62.92Z" transform="matrix(1, 0, 0, 1, 3.552713678800501e-15, 0)"/>
  <path class="cls-7" d="M251.69,270.18l.62,1.69a1.68,1.68,0,0,1,0,1.39,1.91,1.91,0,0,1-1.14.89l-3.55,1.3a2,2,0,0,1-1.45.07,1.74,1.74,0,0,1-.89-1.08l-.62-1.68Zm-5.41,3.88a.54.54,0,0,0,.32.35.77.77,0,0,0,.57,0l3.66-1.34a.78.78,0,0,0,.46-.34.57.57,0,0,0,0-.48l-.21-.56-5,1.84Z" transform="matrix(1, 0, 0, 1, 3.552713678800501e-15, 0)"/>
</svg>